<svg xmlns="http://www.w3.org/2000/svg" xmlns:xlink="http://www.w3.org/1999/xlink" width="457" height="185" contentScriptType="application/ecmascript" contentStyleType="text/css" style="width:457px;height:185px;background:#ddd" preserveAspectRatio="none" version="1.1" viewBox="0 0 457 185" zoomAndPan="magnify"><g><text x="94.75" y="28.708" fill="#000" font-family="sans-serif" font-size="18" lengthAdjust="spacing" textLength="267">N8n Integration with BlueIris</text><line style="stroke:#454645;stroke-width:1;stroke-dasharray:5,5" x1="39" x2="39" y1="71.25" y2="178.648"/><line style="stroke:#454645;stroke-width:1;stroke-dasharray:5,5" x1="166.5" x2="166.5" y1="71.25" y2="178.648"/><line style="stroke:#454645;stroke-width:1;stroke-dasharray:5,5" x1="294.5" x2="294.5" y1="71.25" y2="178.648"/><line style="stroke:#454645;stroke-width:1;stroke-dasharray:5,5" x1="410.5" x2="410.5" y1="71.25" y2="178.648"/><rect style="stroke:#454645;stroke-width:1.5" width="69" height="30.297" x="5" y="39.953" fill="#FF6F61" rx="3.5" ry="3.5"/><text x="12" y="59.948" fill="#FFF" font-family="sans-serif" font-size="14" lengthAdjust="spacing" textLength="55">Camera</text><rect style="stroke:#454645;stroke-width:1.5" width="66" height="30.297" x="133.5" y="39.953" fill="#FF6F61" rx="3.5" ry="3.5"/><text x="140.5" y="59.948" fill="#FFF" font-family="sans-serif" font-size="14" lengthAdjust="spacing" textLength="52">BlueIris</text><rect style="stroke:#454645;stroke-width:1.5" width="40" height="30.297" x="274.5" y="39.953" fill="#FF6F61" rx="3.5" ry="3.5"/><text x="281.5" y="59.948" fill="#FFF" font-family="sans-serif" font-size="14" lengthAdjust="spacing" textLength="26">n8n</text><rect style="stroke:#454645;stroke-width:1.5" width="82" height="30.297" x="369.5" y="39.953" fill="#FF6F61" rx="3.5" ry="3.5"/><text x="376.5" y="59.948" fill="#FFF" font-family="sans-serif" font-size="14" lengthAdjust="spacing" textLength="68">Telegram</text><polygon fill="#454645" points="154.5 98.383 164.5 102.383 154.5 106.383 158.5 102.383" style="stroke:#454645;stroke-width:1"/><line style="stroke:#454645;stroke-width:1" x1="39.5" x2="160.5" y1="102.383" y2="102.383"/><text x="46.5" y="97.317" fill="#000" font-family="sans-serif" font-size="13" lengthAdjust="spacing" textLength="103">Motion detected</text><polygon fill="#454645" points="282.5 127.516 292.5 131.516 282.5 135.516 286.5 131.516" style="stroke:#454645;stroke-width:1"/><line style="stroke:#454645;stroke-width:1" x1="166.5" x2="288.5" y1="131.516" y2="131.516"/><text x="173.5" y="126.45" fill="#000" font-family="sans-serif" font-size="13" lengthAdjust="spacing" textLength="104">Invoke webhook</text><polygon fill="#454645" points="398.5 156.648 408.5 160.648 398.5 164.648 402.5 160.648" style="stroke:#454645;stroke-width:1"/><line style="stroke:#454645;stroke-width:1" x1="294.5" x2="404.5" y1="160.648" y2="160.648"/><text x="301.5" y="155.583" fill="#000" font-family="sans-serif" font-size="13" lengthAdjust="spacing" textLength="92">Send Message</text></g></svg>